<?xml version="1.0" encoding="utf-8"?>
<!-- Generator: Adobe Illustrator 17.0.2, SVG Export Plug-In . SVG Version: 6.00 Build 0)  -->
<!DOCTYPE svg PUBLIC "-//W3C//DTD SVG 1.1//EN" "http://www.w3.org/Graphics/SVG/1.1/DTD/svg11.dtd">
<svg version="1.1" id="Layer_1" xmlns="http://www.w3.org/2000/svg" xmlns:xlink="http://www.w3.org/1999/xlink" x="0px" y="0px"
	 width="450px" height="270px" viewBox="0 15 450 270" enable-background="new 0 15 450 270" xml:space="preserve">
<g>
	<g>
		<path fill="#2D333B" d="M40.039,271.268l37.62-80.892c0.361-0.72,1.202-1.322,2.043-1.322h1.202c0.841,0,1.683,0.601,2.043,1.322
			l37.62,80.892c0.721,1.562-0.24,3.125-2.043,3.125h-13.341c-2.164,0-3.125-0.721-4.207-3.005l-4.328-9.496H63.957l-4.328,9.616
			c-0.601,1.442-1.922,2.884-4.327,2.884H42.081C40.28,274.393,39.317,272.83,40.039,271.268L40.039,271.268z M89.438,245.547
			l-9.135-19.832h-0.121l-9.015,19.832H89.438z"/>
		<path fill="#2D333B" d="M123.287,228.599c0-1.322,1.081-2.284,2.284-2.284h12.861c1.202,0,2.284,0.962,2.284,2.284v22.236
			c0,4.928,2.765,9.255,7.692,9.255c4.688,0,7.211-4.448,7.211-8.534v-22.958c0-1.924,1.322-2.284,2.524-2.284h12.26
			c1.202,0,2.284,0.962,2.284,2.284v43.51c0,1.202-1.082,2.284-2.284,2.284h-5.648c-1.082,0-1.924-0.841-2.284-1.683l-1.803-4.448
			c-3.125,3.005-6.971,7.332-16.226,7.332c-14.302,0-21.153-11.539-21.153-25.24L123.287,228.599L123.287,228.599L123.287,228.599z"
			/>
		<path fill="#2D333B" d="M187.184,241.58h-3.125c-1.202,0-2.164-1.082-2.164-2.284v-10.697c0-1.322,0.962-2.284,2.164-2.284h3.125
			v-13.343c0-1.202,1.081-2.284,2.284-2.284h12.861c1.202,0,2.164,1.081,2.164,2.284v13.343h8.895c1.323,0,2.284,0.962,2.284,2.284
			v10.697c0,1.202-0.961,2.284-2.284,2.284h-8.895v15.025c0,2.644,1.803,2.884,3.246,2.884c1.683,0,3.485-0.601,4.688-0.841
			s2.284,0.241,2.644,1.562l2.644,9.976c0.241,1.081-0.361,2.404-1.562,2.764c0,0-8.534,2.644-14.543,2.644
			c-9.134,0-14.423-5.769-14.423-16.706L187.184,241.58L187.184,241.58z"/>
		<path fill="#2D333B" d="M226.202,192.54c0-1.202,1.081-2.284,2.283-2.284h13.342c1.202,0,2.284,1.082,2.284,2.284v35.337
			c3.606-1.802,7.572-2.765,11.177-2.765c15.145,0,22.957,11.9,22.957,25.242v21.754c0,1.202-1.082,2.284-2.284,2.284h-12.74
			c-1.322,0-2.284-1.082-2.284-2.284v-21.996c0-5.288-3.485-9.495-8.774-9.495c-3.847,0-8.053,2.164-8.053,9.495v21.996
			c0,1.562-0.601,2.284-2.644,2.284h-12.981c-1.202,0-2.283-1.082-2.283-2.284C226.202,272.109,226.202,192.54,226.202,192.54z"/>
		<path fill="#DA4453" d="M291.662,241.58h-2.524c-1.322,0-2.284-1.082-2.284-2.284v-10.697c0-1.322,0.962-2.284,2.284-2.284h2.524
			v-11.058c0-16.828,10.457-26.203,24.4-26.203c6.249,0,12.62,2.644,14.664,4.568c0.721,0.601,0.961,1.922,0.48,2.764l-5.048,9.976
			c-0.36,0.841-1.802,1.322-2.764,0.841c-1.562-0.841-3.847-1.924-6.25-1.924c-5.048,0-7.092,4.087-7.092,9.976v11.058h11.057
			c1.322,0,2.284,0.962,2.284,2.284v10.697c0,1.202-0.962,2.284-2.284,2.284h-11.057v30.749c0,1.202-1.082,2.284-2.284,2.284
			h-13.822c-1.202,0-2.284-1.082-2.284-2.284C291.663,272.327,291.662,241.579,291.662,241.58z"/>
		<path fill="#DA4453" d="M330.439,228.599c0-1.322,1.082-2.284,2.284-2.284h12.861c1.202,0,2.284,0.962,2.284,2.284v22.236
			c0,4.928,2.765,9.255,7.693,9.255c4.688,0,7.211-4.448,7.211-8.534v-22.958c0-1.924,1.322-2.284,2.524-2.284h12.26
			c1.202,0,2.284,0.962,2.284,2.284v43.51c0,1.202-1.081,2.284-2.284,2.284h-5.649c-1.082,0-1.924-0.841-2.284-1.683l-1.802-4.448
			c-3.125,3.005-6.972,7.332-16.226,7.332c-14.303,0-21.155-11.539-21.155-25.24V228.599z"/>
		<path fill="#DA4453" d="M392.413,192.54c0-1.202,1.082-2.284,2.284-2.284h13.221c1.202,0,2.284,1.082,2.284,2.284v79.569
			c0,1.202-1.082,2.284-2.284,2.284h-13.221c-1.202,0-2.284-1.082-2.284-2.284C392.413,272.11,392.413,192.54,392.413,192.54z"/>
	</g>
	<path fill="#2D333B" d="M272.034,83.985l-18.69-4.76V60.788c0-26.824-15.226-36.382-29.369-36.382
		c-14.07,0-29.218,9.601-29.218,36.546l0.013,18.759l-16.805,4.274c-4.523,1.154-8.19,5.714-8.19,10.382v50.181
		c0,4.668,3.667,9.228,8.19,10.382l40.9,10.418c1.665,0.425,3.853,0.659,6.102,0.659c2.25,0,4.422-0.234,6.087-0.659l40.971-10.418
		c4.523-1.154,8.198-5.714,8.198-10.382V94.367C280.225,89.699,276.558,85.139,272.034,83.985z M225,72.908
		c-2.25,0-4.406,0.234-6.071,0.659l-7.774,1.978l0.023-14.584c0-7.001,1.356-12.525,3.89-15.983
		c2.068-2.822,4.895-4.137,8.827-4.137c3.985,0,6.883,1.308,8.98,4.114c2.554,3.419,4.034,8.894,4.034,15.832v14.251l-5.775-1.471
		C229.469,73.142,227.251,72.908,225,72.908L225,72.908z"/>
	<g>
		<path fill="#DA4453" d="M222.15,76.465c-0.293,0-0.63,0.038-0.945,0.118l-43.493,11.069c-2.102,0.536-3.991,2.75-3.991,4.92
			v10.009c0,2.042,1.75,3.583,3.734,3.583l0.531-0.018l43.133-4.176c2.16-0.209,3.882-2.155,3.882-4.325V79.552
			C225,77.707,223.815,76.465,222.15,76.465L222.15,76.465z M215.258,93.061c-1.089,0-1.972-1.236-1.972-2.761
			s0.883-2.761,1.972-2.761s1.972,1.236,1.972,2.761S216.347,93.061,215.258,93.061z M238.268,105.958l-9.329-0.116
			c-2.17-0.027-5.713,0.1-7.875,0.283l-43.354,3.657c-2.162,0.183-3.991,2.107-3.991,4.277v10.405c0,2.17,1.829,4.092,3.991,4.273
			l43.388,3.622c2.162,0.18,3.901-1.447,3.901-3.617v-17.031c0-2.17,1.835-3.265,4.004-3.237l9.234,0.116
			c2.17,0.028,2.644-0.671,2.644-1.213C240.883,106.832,240.437,105.986,238.268,105.958z M215.258,121.988
			c-1.089,0-1.972-1.236-1.972-2.761s0.883-2.761,1.972-2.761s1.972,1.236,1.972,2.761S216.347,121.988,215.258,121.988z
			 M238.278,135.959l-9.349,0.684c-2.164,0.158-5.701,0.117-7.86-0.091l-43.363-4.177c-2.16-0.208-3.986,1.396-3.986,3.566v9.443
			c0,2.17,1.78,4.381,3.883,4.915l43.603,11.076c2.103,0.534,3.793-0.805,3.793-2.974v-15.287c0-2.17,1.828-3.447,3.989-3.642
			l9.266-0.834c2.161-0.195,2.589-1.072,2.589-1.61C240.842,136.491,240.442,135.801,238.278,135.959z M215.258,150.916
			c-1.089,0-1.972-1.236-1.972-2.761c0-1.525,0.883-2.761,1.972-2.761s1.972,1.236,1.972,2.761
			C217.23,149.68,216.347,150.916,215.258,150.916z"/>
	</g>
	<path fill="#DA4453" d="M229.387,34.403c7.444,4.64,11.219,13.025,11.219,24.923l0.012,16.318l4.604,1.172l-0.014-17.563
		c0-14.745-5.898-25.08-15.778-27.646c-0.539-0.139-1.06-0.214-1.507-0.214c-0.682,0-1.042,0.171-1.087,0.329
		C226.763,31.98,227.077,32.964,229.387,34.403L229.387,34.403z"/>
	<path fill="#DA4453" d="M208.169,35.493c-0.066-0.206-0.206-0.442-0.708-0.442c-0.534,0-1.121,0.272-1.185,0.31
		c-5.675,3.584-8.854,15.162-8.721,31.763l0.086,11.519l2.659-0.677l-0.081-10.786c-0.113-14.139,1.809-23.607,5.713-28.14
		C207.511,37.206,208.257,35.778,208.169,35.493z"/>
</g>
</svg>
