<?xml version="1.0" encoding="utf-8"?>
<!-- Generator: Adobe Illustrator 17.0.2, SVG Export Plug-In . SVG Version: 6.00 Build 0)  -->
<!DOCTYPE svg PUBLIC "-//W3C//DTD SVG 1.1//EN" "http://www.w3.org/Graphics/SVG/1.1/DTD/svg11.dtd">
<svg version="1.1" id="Layer_1" xmlns="http://www.w3.org/2000/svg" xmlns:xlink="http://www.w3.org/1999/xlink" x="0px" y="0px"
	 width="180px" height="274.667px" viewBox="0 0 180 274.667" enable-background="new 0 0 180 274.667" xml:space="preserve">
<g>
	<path fill="none" stroke="#DA4453" stroke-width="0.5" stroke-miterlimit="10" d="M75.547,41.251c0,1.8,1.459,3.26,3.26,3.26
		h24.094c1.801,0,3.26-1.46,3.26-3.26c0-1.8-1.459-3.26-3.26-3.26H78.807C77.006,37.991,75.547,39.451,75.547,41.251
		C75.547,41.251,75.547,39.451,75.547,41.251z"/>
	<path fill="none" stroke="#DA4453" stroke-width="0.5" stroke-miterlimit="10" d="M76.964,41.251c0,1.018,0.825,1.842,1.842,1.842
		h24.096c1.016,0,1.841-0.824,1.841-1.842c0-1.018-0.825-1.842-1.841-1.842H78.806C77.789,39.409,76.964,40.233,76.964,41.251
		C76.964,41.251,76.964,40.233,76.964,41.251z"/>
	<path fill="none" stroke="#DA4453" stroke-width="0.5" stroke-miterlimit="10" d="M118.54,9.779c0,0.313,0.254,0.567,0.567,0.567
		h25.783c0.313,0,0.567-0.254,0.567-0.567V9.206c0-0.313-0.254-0.567-0.567-0.567h-25.783c-0.313,0-0.567,0.254-0.567,0.567V9.779z"
		/>
	<path fill="none" stroke="#DA4453" stroke-width="0.5" stroke-miterlimit="10" d="M6.135,73.571c0,0.313,0.254,0.567,0.567,0.567
		h0.573c0.313,0,0.567-0.254,0.567-0.567V59.517c0-0.313-0.254-0.567-0.567-0.567H6.701c-0.313,0-0.567,0.254-0.567,0.567V73.571z"
		/>
	<path fill="none" stroke="#DA4453" stroke-width="0.5" stroke-miterlimit="10" d="M6.135,103.321c0,0.313,0.254,0.567,0.567,0.567
		h0.573c0.313,0,0.567-0.254,0.567-0.567v-9.93c0-0.313-0.254-0.567-0.567-0.567H6.701c-0.313,0-0.567,0.254-0.567,0.567V103.321z"
		/>
	<path fill="none" stroke="#DA4453" stroke-width="0.5" stroke-miterlimit="10" d="M6.135,132.322c0,0.313,0.254,0.567,0.567,0.567
		h0.573c0.313,0,0.567-0.254,0.567-0.567v-9.93c0-0.313-0.254-0.567-0.567-0.567H6.701c-0.313,0-0.567,0.254-0.567,0.567V132.322z"
		/>
</g>
<path fill="none" stroke="#DA4453" stroke-width="0.5" stroke-miterlimit="10" d="M171.641,274.667V35.334
	c0-12.524-10.153-22.677-22.677-22.677H32.743c-12.524,0-22.677,10.153-22.677,22.677v239.333"/>
<path fill="none" stroke="#DA4453" stroke-miterlimit="10" d="M173.865,274.667V34.44c0-13.307-10.787-24.095-24.094-24.095H31.937
	c-13.307,0-24.095,10.788-24.095,24.095v240.226"/>
<path fill="none" stroke="#DA4453" stroke-linejoin="round" stroke-miterlimit="10" d="M164.129,274.667V59.16
	c0-0.783-0.634-1.418-1.417-1.418H18.995c-0.782,0-1.417,0.635-1.417,1.418v215.507"/>
</svg>
